<?xml version="1.0" encoding="UTF-8"?>
<svg width="530" height="400" xmlns="http://www.w3.org/2000/svg">
 <!-- Created with Method Draw - http://github.com/duopixel/Method-Draw/ -->
 <g>
  <title>background</title>
  <rect fill="#fff" id="canvas_background" height="402" width="532" y="-1" x="-1"/>
  <g display="none" overflow="visible" y="0" x="0" height="100%" width="100%" id="canvasGrid">
   <rect fill="url(#gridpattern)" stroke-width="0" y="0" x="0" height="100%" width="100%"/>
  </g>
 </g>
 <g>
  <title>Layer 1</title>
  <path id="svg_1" d="m254.48291,209.915222l33.676514,0c4.854858,-0.011749 8.164917,-4.804291 8.150818,-9.736267l0,-3.316284c9.609985,-0.009369 16.584351,-8.481201 16.579041,-18.360474c0.00531,-10.055817 -6.832764,-18.316589 -14.787842,-18.308853l-51.909973,0l0,39.985611c0.006348,5.429901 3.988098,9.725891 8.291443,9.736267zm41.824219,-42.201385l0,0l1.791626,0c6.585693,-0.011658 8.697449,7.300781 8.665649,10.842499c0.007935,5.720947 -3.602356,11.206451 -10.457275,10.674683l0,-21.517181zm-68.672455,44.635712c0.002869,7.390778 4.803894,10.819031 8.665497,10.839905l69.6651,0c4.608215,-0.020874 8.644653,-4.274261 8.665649,-10.839905l-86.996246,0z" stroke-width="1.5" stroke="#4c2400" fill="#703702"/>
  <path id="svg_10" d="m118.595337,90.638359c-11.166168,0 -20.235733,-10.661415 -20.235733,-23.818207c0,-13.158779 9.069565,-23.833393 20.235733,-23.833393c11.181442,0 20.250427,10.674614 20.250427,23.833393c0,13.156792 -9.068985,23.818207 -20.250427,23.818207zm-56.74807,102.726799l18.154396,-79.27684c0.173538,-0.722244 0.410042,-1.409256 0.692543,-2.042816c2.065491,-7.427612 7.989914,-12.803757 14.984787,-12.803757l45.973122,0c7.291428,0 13.414703,5.838623 15.219009,13.760284c0.115784,0.350571 0.222076,0.713531 0.319244,1.090805l17.827011,79.276825c1.190552,5.200562 -1.429321,10.535858 -5.859604,11.936584c-4.401703,1.392548 -8.943344,-1.692841 -10.132614,-6.893158l-14.00882,-62.27005l-5.837524,0l25.418213,112.674789l-23.947861,0l0,77.784042c0,5.981873 -4.111069,10.83252 -9.207108,10.83252c-5.079758,0 -9.203217,-4.841705 -9.203217,-10.83252l0,-77.784042l-7.313171,0l0,77.784042c0,5.981873 -4.118591,10.83252 -9.214706,10.83252c-5.071922,0 -9.203018,-4.841705 -9.203018,-10.83252l0,-77.784042l-23.940216,0l25.514244,-112.674789l-5.983963,0l-14.264305,62.27005c-1.189903,5.200317 -5.73056,8.285706 -10.146927,6.893158c-4.409874,-1.400726 -7.028816,-6.744995 -5.839516,-11.941086l0,0z" stroke-opacity="null" stroke-width="1.5" stroke="#000" fill="#ff6161"/>
  <path id="svg_13" d="m437.595337,99.638359c-11.166168,0 -20.235718,-10.661415 -20.235718,-23.818207c0,-13.158779 9.06955,-23.833393 20.235718,-23.833393c11.181458,0 20.250427,10.674614 20.250427,23.833393c0,13.156792 -9.06897,23.818207 -20.250427,23.818207zm-56.748077,102.726799l18.154388,-79.27684c0.173553,-0.722244 0.410065,-1.409256 0.692566,-2.042816c2.065491,-7.427612 7.989899,-12.803757 14.984772,-12.803757l45.973114,0c7.291443,0 13.414734,5.838623 15.219025,13.760284c0.115784,0.350571 0.222076,0.713531 0.319244,1.090805l17.827026,79.276825c1.190552,5.200562 -1.429321,10.535858 -5.859619,11.936584c-4.401703,1.392548 -8.943359,-1.692841 -10.132629,-6.893158l-14.008789,-62.27005l-5.837524,0l25.418213,112.674774l-23.947876,0l0,77.784058c0,5.981873 -4.111084,10.83252 -9.207092,10.83252c-5.079773,0 -9.203247,-4.841705 -9.203247,-10.83252l0,-77.784058l-7.313171,0l0,77.784058c0,5.981873 -4.118591,10.83252 -9.214691,10.83252c-5.07193,0 -9.203033,-4.841705 -9.203033,-10.83252l0,-77.784058l-23.940186,0l25.514221,-112.674774l-5.983948,0l-14.264313,62.27005c-1.189911,5.200317 -5.73056,8.285706 -10.146942,6.893158c-4.409851,-1.400726 -7.028809,-6.744995 -5.839508,-11.941086l0,0z" stroke-opacity="null" stroke-width="1.5" stroke="#000" fill="#fff390"/>
  <path id="svg_18" d="m124.595337,90.638359c-11.166168,0 -20.235733,-10.661415 -20.235733,-23.818207c0,-13.158779 9.069565,-23.833393 20.235733,-23.833393c11.181442,0 20.250427,10.674614 20.250427,23.833393c0,13.156792 -9.068985,23.818207 -20.250427,23.818207zm-56.74807,102.726799l18.154396,-79.27684c0.173538,-0.722244 0.410042,-1.409256 0.692543,-2.042816c2.065491,-7.427612 7.989914,-12.803757 14.984787,-12.803757l45.973122,0c7.291428,0 13.414703,5.838623 15.219009,13.760284c0.115784,0.350571 0.222076,0.713531 0.319244,1.090805l17.827011,79.276825c1.190552,5.200562 -1.429321,10.535858 -5.859604,11.936584c-4.401703,1.392548 -8.943344,-1.692841 -10.132614,-6.893158l-14.00882,-62.27005l-5.837524,0l25.418213,112.674789l-23.947861,0l0,77.784042c0,5.981873 -4.111069,10.83252 -9.207108,10.83252c-5.079758,0 -9.203217,-4.841705 -9.203217,-10.83252l0,-77.784042l-7.313171,0l0,77.784042c0,5.981873 -4.118591,10.83252 -9.214706,10.83252c-5.071922,0 -9.203018,-4.841705 -9.203018,-10.83252l0,-77.784042l-23.940216,0l25.514244,-112.674789l-5.983963,0l-14.264305,62.27005c-1.189903,5.200317 -5.73056,8.285706 -10.146927,6.893158c-4.409874,-1.400726 -7.028816,-6.744995 -5.839516,-11.941086l0,0z" stroke-opacity="null" stroke-width="1.5" stroke="#000" fill="#ff6161"/>
  <path id="svg_19" d="m134.595337,90.638359c-11.166168,0 -20.235733,-10.661415 -20.235733,-23.818207c0,-13.158779 9.069565,-23.833393 20.235733,-23.833393c11.181442,0 20.250427,10.674614 20.250427,23.833393c0,13.156792 -9.068985,23.818207 -20.250427,23.818207zm-56.74807,102.726799l18.154396,-79.27684c0.173538,-0.722244 0.410042,-1.409256 0.692543,-2.042816c2.065491,-7.427612 7.989914,-12.803757 14.984787,-12.803757l45.973122,0c7.291428,0 13.414703,5.838623 15.219009,13.760284c0.115784,0.350571 0.222076,0.713531 0.319244,1.090805l17.827011,79.276825c1.190552,5.200562 -1.429321,10.535858 -5.859604,11.936584c-4.401703,1.392548 -8.943344,-1.692841 -10.132614,-6.893158l-14.00882,-62.27005l-5.837524,0l25.418213,112.674789l-23.947861,0l0,77.784042c0,5.981873 -4.111069,10.83252 -9.207108,10.83252c-5.079758,0 -9.203217,-4.841705 -9.203217,-10.83252l0,-77.784042l-7.313171,0l0,77.784042c0,5.981873 -4.118591,10.83252 -9.214706,10.83252c-5.071922,0 -9.203018,-4.841705 -9.203018,-10.83252l0,-77.784042l-23.940216,0l25.514244,-112.674789l-5.983963,0l-14.264305,62.27005c-1.189903,5.200317 -5.73056,8.285706 -10.146927,6.893158c-4.409874,-1.400726 -7.028816,-6.744995 -5.839516,-11.941086l0,0z" stroke-opacity="null" stroke-width="1.5" stroke="#000" fill="#ff6161"/>
  <path id="svg_20" d="m143.595337,90.638359c-11.166168,0 -20.235733,-10.661415 -20.235733,-23.818207c0,-13.158779 9.069565,-23.833393 20.235733,-23.833393c11.181442,0 20.250427,10.674614 20.250427,23.833393c0,13.156792 -9.068985,23.818207 -20.250427,23.818207zm-56.74807,102.726799l18.154396,-79.27684c0.173538,-0.722244 0.410042,-1.409256 0.692543,-2.042816c2.065491,-7.427612 7.989914,-12.803757 14.984787,-12.803757l45.973122,0c7.291428,0 13.414703,5.838623 15.219009,13.760284c0.115784,0.350571 0.222076,0.713531 0.319244,1.090805l17.827011,79.276825c1.190552,5.200562 -1.429321,10.535858 -5.859604,11.936584c-4.401703,1.392548 -8.943344,-1.692841 -10.132614,-6.893158l-14.00882,-62.27005l-5.837524,0l25.418213,112.674789l-23.947861,0l0,77.784042c0,5.981873 -4.111069,10.83252 -9.207108,10.83252c-5.079758,0 -9.203217,-4.841705 -9.203217,-10.83252l0,-77.784042l-7.313171,0l0,77.784042c0,5.981873 -4.118591,10.83252 -9.214706,10.83252c-5.071922,0 -9.203018,-4.841705 -9.203018,-10.83252l0,-77.784042l-23.940216,0l25.514244,-112.674789l-5.983963,0l-14.264305,62.27005c-1.189903,5.200317 -5.73056,8.285706 -10.146927,6.893158c-4.409874,-1.400726 -7.028816,-6.744995 -5.839516,-11.941086l0,0z" stroke-opacity="null" stroke-width="1.5" stroke="#000" fill="#ff6161"/>
  <path id="svg_21" d="m153.595337,90.638359c-11.166168,0 -20.235733,-10.661415 -20.235733,-23.818207c0,-13.158779 9.069565,-23.833393 20.235733,-23.833393c11.181442,0 20.250427,10.674614 20.250427,23.833393c0,13.156792 -9.068985,23.818207 -20.250427,23.818207zm-56.74807,102.726799l18.154396,-79.27684c0.173538,-0.722244 0.410042,-1.409256 0.692543,-2.042816c2.065491,-7.427612 7.989914,-12.803757 14.984779,-12.803757l45.973129,0c7.291428,0 13.414703,5.838623 15.219009,13.760284c0.115784,0.350571 0.222076,0.713531 0.319244,1.090805l17.827011,79.276825c1.190552,5.200562 -1.429321,10.535858 -5.859604,11.936584c-4.401703,1.392548 -8.943344,-1.692841 -10.132614,-6.893158l-14.00882,-62.27005l-5.837524,0l25.418213,112.674789l-23.947861,0l0,77.784042c0,5.981873 -4.111069,10.83252 -9.207108,10.83252c-5.079758,0 -9.203217,-4.841705 -9.203217,-10.83252l0,-77.784042l-7.313171,0l0,77.784042c0,5.981873 -4.118591,10.83252 -9.214706,10.83252c-5.07193,0 -9.203018,-4.841705 -9.203018,-10.83252l0,-77.784042l-23.940216,0l25.514236,-112.674789l-5.983955,0l-14.264305,62.27005c-1.189903,5.200317 -5.73056,8.285706 -10.146927,6.893158c-4.409874,-1.400726 -7.028816,-6.744995 -5.839516,-11.941086l0,0z" stroke-opacity="null" stroke-width="1.5" stroke="#000" fill="#ff6161"/>
  <path id="svg_22" d="m162.595337,90.638359c-11.166168,0 -20.235733,-10.661415 -20.235733,-23.818207c0,-13.158779 9.069565,-23.833393 20.235733,-23.833393c11.181442,0 20.250427,10.674614 20.250427,23.833393c0,13.156792 -9.068985,23.818207 -20.250427,23.818207zm-56.74807,102.726799l18.154396,-79.27684c0.173538,-0.722244 0.410042,-1.409256 0.692543,-2.042816c2.065491,-7.427612 7.989906,-12.803757 14.984779,-12.803757l45.973129,0c7.291428,0 13.414703,5.838623 15.219009,13.760284c0.115784,0.350571 0.222076,0.713531 0.319244,1.090805l17.827011,79.276825c1.190552,5.200562 -1.429321,10.535858 -5.859604,11.936584c-4.401703,1.392548 -8.943344,-1.692841 -10.132614,-6.893158l-14.00882,-62.27005l-5.837524,0l25.418213,112.674789l-23.947861,0l0,77.784042c0,5.981873 -4.111069,10.83252 -9.207108,10.83252c-5.079758,0 -9.203217,-4.841705 -9.203217,-10.83252l0,-77.784042l-7.313171,0l0,77.784042c0,5.981873 -4.118591,10.83252 -9.214706,10.83252c-5.07193,0 -9.203018,-4.841705 -9.203018,-10.83252l0,-77.784042l-23.940216,0l25.514236,-112.674789l-5.983948,0l-14.264313,62.27005c-1.189903,5.200317 -5.73056,8.285706 -10.146927,6.893158c-4.409874,-1.400726 -7.028816,-6.744995 -5.839516,-11.941086l0,0z" stroke-opacity="null" stroke-width="1.5" stroke="#000" fill="#ff6161"/>
  <path id="svg_24" d="m432.595337,99.638359c-11.166168,0 -20.235718,-10.661415 -20.235718,-23.818207c0,-13.158779 9.06955,-23.833393 20.235718,-23.833393c11.181458,0 20.250427,10.674614 20.250427,23.833393c0,13.156792 -9.06897,23.818207 -20.250427,23.818207zm-56.748077,102.726799l18.154388,-79.27684c0.173553,-0.722244 0.410065,-1.409256 0.692566,-2.042816c2.065491,-7.427612 7.989899,-12.803757 14.984772,-12.803757l45.973114,0c7.291443,0 13.414734,5.838623 15.219025,13.760284c0.115784,0.350571 0.222076,0.713531 0.319244,1.090805l17.827026,79.276825c1.190552,5.200562 -1.429321,10.535858 -5.859619,11.936584c-4.401703,1.392548 -8.943359,-1.692841 -10.132629,-6.893158l-14.008789,-62.27005l-5.837524,0l25.418213,112.674774l-23.947876,0l0,77.784058c0,5.981873 -4.111084,10.83252 -9.207092,10.83252c-5.079773,0 -9.203247,-4.841705 -9.203247,-10.83252l0,-77.784058l-7.313171,0l0,77.784058c0,5.981873 -4.118591,10.83252 -9.214691,10.83252c-5.07193,0 -9.203033,-4.841705 -9.203033,-10.83252l0,-77.784058l-23.940186,0l25.514221,-112.674774l-5.983948,0l-14.264313,62.27005c-1.189911,5.200317 -5.73056,8.285706 -10.146942,6.893158c-4.409851,-1.400726 -7.028809,-6.744995 -5.839508,-11.941086l0,0z" stroke-opacity="null" stroke-width="1.5" stroke="#000" fill="#fff390"/>
  <path id="svg_25" d="m423.595337,99.638359c-11.166168,0 -20.235718,-10.661415 -20.235718,-23.818207c0,-13.158779 9.06955,-23.833393 20.235718,-23.833393c11.181458,0 20.250427,10.674614 20.250427,23.833393c0,13.156792 -9.06897,23.818207 -20.250427,23.818207zm-56.748077,102.726799l18.154388,-79.27684c0.173553,-0.722244 0.410065,-1.409256 0.692566,-2.042816c2.065491,-7.427612 7.989899,-12.803757 14.984772,-12.803757l45.973114,0c7.291443,0 13.414734,5.838623 15.219025,13.760284c0.115784,0.350571 0.222076,0.713531 0.319244,1.090805l17.827026,79.276825c1.190552,5.200562 -1.429321,10.535858 -5.859619,11.936584c-4.401703,1.392548 -8.943359,-1.692841 -10.132629,-6.893158l-14.008789,-62.27005l-5.837524,0l25.418213,112.674774l-23.947876,0l0,77.784058c0,5.981873 -4.111084,10.83252 -9.207092,10.83252c-5.079773,0 -9.203247,-4.841705 -9.203247,-10.83252l0,-77.784058l-7.313171,0l0,77.784058c0,5.981873 -4.118591,10.83252 -9.214691,10.83252c-5.07193,0 -9.203033,-4.841705 -9.203033,-10.83252l0,-77.784058l-23.940186,0l25.514221,-112.674774l-5.983948,0l-14.264313,62.27005c-1.189911,5.200317 -5.73056,8.285706 -10.146942,6.893158c-4.409851,-1.400726 -7.028809,-6.744995 -5.839508,-11.941086l0,0z" stroke-opacity="null" stroke-width="1.5" stroke="#000" fill="#fff390"/>
  <path id="svg_26" d="m415.595337,99.638359c-11.166168,0 -20.235718,-10.661415 -20.235718,-23.818207c0,-13.158779 9.06955,-23.833393 20.235718,-23.833393c11.181458,0 20.250427,10.674614 20.250427,23.833393c0,13.156792 -9.06897,23.818207 -20.250427,23.818207zm-56.748077,102.726799l18.154388,-79.27684c0.173553,-0.722244 0.410065,-1.409256 0.692566,-2.042816c2.065491,-7.427612 7.989899,-12.803757 14.984772,-12.803757l45.973114,0c7.291443,0 13.414734,5.838623 15.219025,13.760284c0.115784,0.350571 0.222076,0.713531 0.319244,1.090805l17.827026,79.276825c1.190552,5.200562 -1.429321,10.535858 -5.859619,11.936584c-4.401703,1.392548 -8.943359,-1.692841 -10.132629,-6.893158l-14.008789,-62.27005l-5.837524,0l25.418213,112.674774l-23.947876,0l0,77.784058c0,5.981873 -4.111084,10.83252 -9.207092,10.83252c-5.079773,0 -9.203247,-4.841705 -9.203247,-10.83252l0,-77.784058l-7.313171,0l0,77.784058c0,5.981873 -4.118591,10.83252 -9.214691,10.83252c-5.07193,0 -9.203033,-4.841705 -9.203033,-10.83252l0,-77.784058l-23.940186,0l25.514221,-112.674774l-5.983948,0l-14.264313,62.27005c-1.189911,5.200317 -5.73056,8.285706 -10.146942,6.893158c-4.409851,-1.400726 -7.028809,-6.744995 -5.839508,-11.941086l0,0z" stroke-opacity="null" stroke-width="1.5" stroke="#000" fill="#fff390"/>
  <path id="svg_27" d="m409.595337,99.638359c-11.166168,0 -20.235718,-10.661415 -20.235718,-23.818207c0,-13.158779 9.06955,-23.833393 20.235718,-23.833393c11.181458,0 20.250427,10.674614 20.250427,23.833393c0,13.156792 -9.06897,23.818207 -20.250427,23.818207zm-56.748077,102.726799l18.154388,-79.27684c0.173553,-0.722244 0.410065,-1.409256 0.692566,-2.042816c2.065491,-7.427612 7.989899,-12.803757 14.984772,-12.803757l45.973114,0c7.291443,0 13.414734,5.838623 15.219025,13.760284c0.115784,0.350571 0.222076,0.713531 0.319244,1.090805l17.827026,79.276825c1.190552,5.200562 -1.429321,10.535858 -5.859619,11.936584c-4.401703,1.392548 -8.943359,-1.692841 -10.132629,-6.893158l-14.008789,-62.27005l-5.837524,0l25.418213,112.674774l-23.947876,0l0,77.784058c0,5.981873 -4.111084,10.83252 -9.207092,10.83252c-5.079773,0 -9.203247,-4.841705 -9.203247,-10.83252l0,-77.784058l-7.313171,0l0,77.784058c0,5.981873 -4.118591,10.83252 -9.214691,10.83252c-5.07193,0 -9.203033,-4.841705 -9.203033,-10.83252l0,-77.784058l-23.940186,0l25.514221,-112.674774l-5.983948,0l-14.264313,62.27005c-1.189911,5.200317 -5.73056,8.285706 -10.146942,6.893158c-4.409851,-1.400726 -7.028809,-6.744995 -5.839508,-11.941086l0,0z" stroke-opacity="null" stroke-width="1.5" stroke="#000" fill="#fff390"/>
  <path id="svg_28" d="m403.595337,99.638359c-11.166168,0 -20.235718,-10.661415 -20.235718,-23.818207c0,-13.158779 9.06955,-23.833393 20.235718,-23.833393c11.181458,0 20.250427,10.674614 20.250427,23.833393c0,13.156792 -9.06897,23.818207 -20.250427,23.818207zm-56.748077,102.726799l18.154388,-79.27684c0.173553,-0.722244 0.410065,-1.409256 0.692566,-2.042816c2.065491,-7.427612 7.989899,-12.803757 14.984772,-12.803757l45.973114,0c7.291443,0 13.414734,5.838623 15.219025,13.760284c0.115784,0.350571 0.222076,0.713531 0.319244,1.090805l17.827026,79.276825c1.190552,5.200562 -1.429321,10.535858 -5.859619,11.936584c-4.401703,1.392548 -8.943359,-1.692841 -10.132629,-6.893158l-14.008789,-62.27005l-5.837524,0l25.418213,112.674774l-23.947876,0l0,77.784058c0,5.981873 -4.111084,10.83252 -9.207092,10.83252c-5.079773,0 -9.203247,-4.841705 -9.203247,-10.83252l0,-77.784058l-7.313171,0l0,77.784058c0,5.981873 -4.118591,10.83252 -9.214691,10.83252c-5.07193,0 -9.203033,-4.841705 -9.203033,-10.83252l0,-77.784058l-23.940186,0l25.514221,-112.674774l-5.983948,0l-14.264313,62.27005c-1.189911,5.200317 -5.73056,8.285706 -10.146942,6.893158c-4.409851,-1.400726 -7.028809,-6.744995 -5.839508,-11.941086l0,0z" stroke-opacity="null" stroke-width="1.5" stroke="#000" fill="#fff390"/>
  <path id="svg_29" d="m392.595337,99.638359c-11.166168,0 -20.235718,-10.661415 -20.235718,-23.818207c0,-13.158779 9.06955,-23.833393 20.235718,-23.833393c11.181458,0 20.250427,10.674614 20.250427,23.833393c0,13.156792 -9.06897,23.818207 -20.250427,23.818207zm-56.748077,102.726799l18.154388,-79.27684c0.173553,-0.722244 0.410065,-1.409256 0.692566,-2.042816c2.065491,-7.427612 7.989899,-12.803757 14.984772,-12.803757l45.973114,0c7.291443,0 13.414734,5.838623 15.219025,13.760284c0.115784,0.350571 0.222076,0.713531 0.319244,1.090805l17.827026,79.276825c1.190552,5.200562 -1.429321,10.535858 -5.859619,11.936584c-4.401703,1.392548 -8.943359,-1.692841 -10.132629,-6.893158l-14.008789,-62.27005l-5.837524,0l25.418213,112.674774l-23.947876,0l0,77.784058c0,5.981873 -4.111084,10.83252 -9.207092,10.83252c-5.079773,0 -9.203247,-4.841705 -9.203247,-10.83252l0,-77.784058l-7.313171,0l0,77.784058c0,5.981873 -4.118591,10.83252 -9.214691,10.83252c-5.07193,0 -9.203033,-4.841705 -9.203033,-10.83252l0,-77.784058l-23.940186,0l25.514221,-112.674774l-5.983948,0l-14.264313,62.27005c-1.189911,5.200317 -5.73056,8.285706 -10.146942,6.893158c-4.409851,-1.400726 -7.028809,-6.744995 -5.839508,-11.941086l0,0z" stroke-opacity="null" stroke-width="1.5" stroke="#000" fill="#fff390"/>
  <path id="svg_37" d="m246.759277,72.526047l-39.554199,27.003052l39.55835,26.999557l14.381714,-9.819717l-25.170868,-17.17984l25.166534,-17.178726l-14.381531,-9.824326l0,0zm57.883636,0l-14.372955,9.82103l25.166931,17.180374l-25.166931,17.177368l14.372955,9.819733l39.558258,-27.002045l-39.558258,-26.99646z" stroke-opacity="null" stroke-width="1.5" stroke="#000" fill="#7f0000"/>
 </g>
</svg>